:SAMPLES-PER-SECOND 30
:FULLY-SPECIFIED
:DEGREES
39
root  -8.34884 44.2758 35.6785 -19.2557 42.1221 -33.3102
RightUpLeg  -113.318 -44.0694 -11.9602
RightLeg  23.6913 -29.767 -13.5264
RightFoot  -9.80627 -0.243282 12.9554
RightToes  -5.82094e-011 -1.98785e-016 -5.10186e-018
Spine  38.6312 1.15602 11.0485
Spine1  -13.4189 5.47259 9.80663
HEad  -13.6955 -32.5458 16.8484
LeftShoulder1  0.900036 7.3823 36.0508
LeftArm  -62.0557 -11.7898 -3.21629
LeftForeArm  61.1414 -44.1537 -6.93241
LeftHand  2.99563 15.2926 33.7286
RightShoulder  0.020347 -3.74405 -17.4545
RightArm  -29.7124 13.9023 -12.2154
RightForeArm  26.0177 -6.0456 7.49108
RightHand  -3.22197 11.7663 -21.9081
LeftUpLeg  -12.2326 20.892 29.8586
LeftLeg  5.18516 14.9459 2.10308
LeftFoot  32.8932 5.25047 -13.1791
LeftToes  -8.4584e-011 5.90861e-011 8.40072e-012
40
root  -8.51007 45.2042 37.5007 -17.3515 39.7352 -36.4302
RightUpLeg  -114.422 -40.6081 -9.24424
RightLeg  31.5537 -25.9127 -16.4119
RightFoot  -10.8122 -0.129205 12.0048
RightToes  -5.82094e-011 -1.98785e-016 -5.10186e-018
Spine  37.5544 2.71224 10.2321
Spine1  -16.5634 6.82158 12.4005
HEad  -12.4711 -30.052 16.11
LeftShoulder1  1.79702 11.5721 34.5436
LeftArm  -52.0992 -2.20895 -3.29944
LeftForeArm  59.1926 -45.6219 -7.51319
LeftHand  2.61392 14.6275 31.7466
RightShoulder  0.151712 -5.15899 -19.8576
RightArm  -34.7822 16.7699 -14.1489
RightForeArm  22.5812 -5.86768 6.54929
RightHand  -3.02488 10.113 -22.6895
LeftUpLeg  -16.3713 24.6404 29.8882
LeftLeg  7.09223 24.062 3.67747
LeftFoot  30.7342 1.21976 -3.7315
LeftToes  -8.4584e-011 5.90861e-011 8.40072e-012
41
root  -8.61811 45.4572 40.2327 -8.29323 44.0222 -34.9051
RightUpLeg  -113.871 -45.6696 -15.4868
RightLeg  41.8278 -23.9293 -21.4683
RightFoot  -11.893 -0.0307487 10.8084
RightToes  -5.82094e-011 -1.98785e-016 -5.10186e-018
Spine  25.8648 5.52802 1.49707
Spine1  -16.702 5.72497 18.1668
HEad  -13.1421 -30.1137 19.1804
LeftShoulder1  1.70853 11.384 33.9562
LeftArm  -45.434 3.24938 -3.48083
LeftForeArm  58.1171 -48.4738 -8.51007
LeftHand  2.43508 14.2392 30.9574
RightShoulder  0.393977 -8.70887 -18.3867
RightArm  -37.2441 16.9382 -15.0296
RightForeArm  18.3857 -5.79402 6.12769
RightHand  -3.12795 10.7922 -22.5113
LeftUpLeg  -28.2342 32.1098 17.9835
LeftLeg  6.68942 22.5461 1.90035
LeftFoot  28.8613 2.09255 -6.19772
LeftToes  -8.4584e-011 5.90861e-011 8.40072e-012
42
root  -8.3185 45.4421 42.5325 -9.50748 50.1119 -39.2945
RightUpLeg  -95.0532 -48.7819 -26.6349
RightLeg  39.4481 -25.1427 -20.0159
RightFoot  -12.7257 0.0355069 9.86496
RightToes  -5.82094e-011 -1.98785e-016 -5.10186e-018
Spine  15.9254 2.47624 -2.4548
Spine1  -13.3027 1.78961 22.092
HEad  -12.6572 -33.0521 20.4689
LeftShoulder1  0.777841 7.5609 30.7764
LeftArm  -39.6622 2.93379 -3.72151
LeftForeArm  58.6326 -47.5129 -8.16241
LeftHand  2.28549 14.0011 29.9344
RightShoulder  0.69582 -14.4833 -16.6913
RightArm  -42.5735 19.0139 -15.9035
RightForeArm  20.6685 -5.53352 4.53438
RightHand  -2.9763 11.3416 -20.7794
LeftUpLeg  -39.9186 36.8217 4.99819
LeftLeg  10.1157 9.54242 -1.05694
LeftFoot  27.7548 3.11375 -9.03052
LeftToes  -8.4584e-011 5.90861e-011 8.40072e-012
43
root  -7.52569 45.8675 42.2842 -63.7262 48.9971 -78.2845
RightUpLeg  -22.5757 -27.1707 -47.9
RightLeg  15.0297 -37.675 -13.7489
RightFoot  -13.4842 0.137856 12.3235
RightToes  -5.82094e-011 -1.98785e-016 -5.10186e-018
Spine  40.2008 -10.7711 26.751
Spine1  -15.1906 -1.38288 16.1289
HEad  -11.764 -35.7381 21.4562
LeftShoulder1  -0.148232 2.2668 24.0979
LeftArm  -32.1388 1.13294 -4.87907
LeftForeArm  58.9639 -44.1167 -7.03634
LeftHand  1.87879 12.7638 28.839
RightShoulder  0.730714 -17.1422 -15.6665
RightArm  -49.389 20.4925 -17.0008
RightForeArm  16.5811 -5.204 2.7358
RightHand  -3.06182 10.6532 -22.2319
LeftUpLeg  -29.6892 42.0221 22.8096
LeftLeg  24.7373 -7.68522 -2.71407
LeftFoot  18.8048 0.817494 -3.59609
LeftToes  -8.4584e-011 5.90861e-011 8.40072e-012
44
root  -7.4308 45.5986 45.2887 -64.2487 54.8807 -81.4444
RightUpLeg  -15.895 -18.4875 -44.1379
RightLeg  2.97137 -38.2518 -16.1228
RightFoot  -14.5209 0.27957 13.5767
RightToes  -5.82094e-011 -1.98785e-016 -5.10186e-018
Spine  30.8784 -2.72766 8.56807
Spine1  -9.71075 -4.11454 32.6109
HEad  -9.42376 -38.5963 24.3422
LeftShoulder1  -0.294056 -1.83823 15.8258
LeftArm  -24.0467 -4.09643 -7.43923
LeftForeArm  58.1758 -39.4358 -5.75277
LeftHand  1.48323 11.8458 26.2719
RightShoulder  0.272536 -18.3461 -11.7582
RightArm  -55.1443 21.6331 -18.8885
RightForeArm  14.4885 -3.43008 1.69769
RightHand  -3.31106 10.4934 -24.2046
LeftUpLeg  -40.7094 49.3716 7.00296
LeftLeg  32.6333 -1.87639 -0.967353
LeftFoot  16.6605 0.769596 -3.45849
LeftToes  -8.4584e-011 5.90861e-011 8.40072e-012
45
root  -7.47838 44.9487 47.8684 -71.269 58.0168 -88.0191
RightUpLeg  -10.6815 -20.1994 -39.4771
RightLeg  7.95041 -36.103 -13.6591
RightFoot  -14.133 0.315828 16.5537
RightToes  -5.82094e-011 -1.98785e-016 -5.10186e-018
Spine  28.5444 -0.775641 0.208703
Spine1  -8.12503 -5.87632 35.179
HEad  -6.44314 -42.8179 29.9293
LeftShoulder1  0.010662 -4.74814 9.41918
LeftArm  -16.3725 -12.0004 -12.0179
LeftForeArm  57.8949 -34.2171 -4.44164
LeftHand  1.35251 11.3846 25.8168
RightShoulder  -0.297679 -18.7954 -7.45235
RightArm  -54.4901 20.1089 -19.091
RightForeArm  19.9738 1.49691 2.60091
RightHand  -3.44899 11.8799 -23.2117
LeftUpLeg  -42.2292 50.1438 0.392083
LeftLeg  31.9577 0.691254 1.13057
LeftFoot  20.5339 1.54738 -5.88508
LeftToes  -8.4584e-011 5.90861e-011 8.40072e-012
46
root  -7.82252 43.87 49.999 -75.0631 55.8304 -91.7471
RightUpLeg  -9.40103 -13.8488 -28.5489
RightLeg  11.9012 -39.4978 -14.2349
RightFoot  -13.4048 0.181332 14.7089
RightToes  -5.82094e-011 -1.98785e-016 -5.10186e-018
Spine  31.5503 -1.69928 4.97771
Spine1  -11.1789 -3.17881 24.4145
HEad  -10.7968 -46.4907 37.9249
LeftShoulder1  0.365487 -6.52096 5.37725
LeftArm  -14.6612 -17.0416 -19.0633
LeftForeArm  58.4435 -33.6489 -4.32382
LeftHand  1.23468 10.9169 25.5896
RightShoulder  -0.216425 -15.2332 -7.41552
RightArm  -47.9634 12.1987 -17.651
RightForeArm  24.2373 5.50128 4.03794
RightHand  -3.4788 11.4446 -24.0028
LeftUpLeg  -35.7265 43.8487 4.82054
LeftLeg  19.2716 -2.29464 -1.57233
LeftFoot  19.7791 1.75144 -6.88155
LeftToes  -8.4584e-011 5.90861e-011 8.40072e-012
47
root  -7.82748 42.318 51.9431 -75.411 54.8414 -91.8278
RightUpLeg  -8.91504 -12.1473 -19.5574
RightLeg  8.55653 -37.2757 -11.7445
RightFoot  -16.168 0.59494 16.7585
RightToes  -5.82094e-011 -1.98785e-016 -5.10186e-018
Spine  29.7338 -1.73423 6.09031
Spine1  -4.94405 -3.32416 17.8899
HEad  -18.2425 -46.0495 42.5037
LeftShoulder1  0.844334 -6.96441 0.53087
LeftArm  -17.9868 -15.6409 -23.328
LeftForeArm  59.4392 -40.0966 -5.85621
LeftHand  1.45692 11.7181 26.3106
RightShoulder  -0.331795 -10.9357 -4.67215
RightArm  -49.4294 6.89582 -18.1912
RightForeArm  19.3819 11.2437 4.04797
RightHand  -3.87869 10.9589 -27.349
LeftUpLeg  -24.1593 29.5139 13.9726
LeftLeg  5.00672 6.993 -3.48293
LeftFoot  11.8515 0.528122 -2.04979
LeftToes  -8.4584e-011 5.90861e-011 8.40072e-012
48
root  -8.05302 40.5688 53.8541 -73.8488 56.8673 -90.2527
RightUpLeg  -9.86498 -12.2351 -16.1889
RightLeg  5.50866 -36.2079 -8.72557
RightFoot  -15.4678 0.495913 16.3245
RightToes  -5.82094e-011 -1.98785e-016 -5.10186e-018
Spine  29.4665 0.247983 1.66542
Spine1  -1.12404 -2.55192 15.633
HEad  -21.5613 -46.3673 40.6691
LeftShoulder1  1.56426 -8.35385 -5.43055
LeftArm  -15.7342 -14.6596 -25.6389
LeftForeArm  59.7083 -44.0735 -6.97188
LeftHand  1.46844 11.9271 25.7096
RightShoulder  -0.4287 -10.1353 -2.48293
RightArm  -49.7934 5.70607 -18.0441
RightForeArm  14.757 21.3733 4.09268
RightHand  -4.22647 11.7896 -28.3328
LeftUpLeg  -21.5864 16.8559 15.4458
LeftLeg  3.7782 20.2301 -1.89346
LeftFoot  -0.384216 -1.25377 11.8877
LeftToes  -8.4584e-011 5.90861e-011 8.40072e-012
49
root  -8.69633 39.1054 55.8473 -75.1838 59.1972 -93.3914
RightUpLeg  -13.2644 -9.99955 -12.9817
RightLeg  2.45948 -37.3492 -7.82159
RightFoot  -14.7007 0.300023 13.2726
RightToes  -5.82094e-011 -1.98785e-016 -5.10186e-018
Spine  31.6588 2.28918 -4.77709
Spine1  -2.74514 -2.36514 17.1601
HEad  -24.239 -45.6092 41.434
LeftShoulder1  1.93817 -8.83347 -8.23164
LeftArm  -11.4398 -13.9376 -30.8107
LeftForeArm  62.4191 -45.705 -7.35269
LeftHand  1.4255 11.9687 24.8573
RightShoulder  -0.24677 -7.30529 -1.61675
RightArm  -52.3026 3.37289 -13.8377
RightForeArm  17.416 36.8924 7.46222
RightHand  -4.16167 10.7434 -29.6148
LeftUpLeg  -33.448 23.8993 8.86503
LeftLeg  18.231 13.4696 4.67957
LeftFoot  -13.2036 0.250146 11.6105
LeftToes  -8.4584e-011 5.90861e-011 8.40072e-012
50
root  -9.31416 38.0311 57.8336 -87.8084 65.3771 -107.978
RightUpLeg  -18.7911 -11.4124 -15.0859
RightLeg  8.73573 -34.75 -10.1704
RightFoot  -15.9211 0.583862 17.8386
RightToes  -5.82094e-011 -1.98785e-016 -5.10186e-018
Spine  35.3017 4.13796 -12.2985
Spine1  -2.06991 -5.77655 23.8483
HEad  -32.0662 -41.5831 50.315
LeftShoulder1  2.14665 -10.4717 -7.85812
LeftArm  -13.876 -15.8318 -36.2694
LeftForeArm  65.2668 -46.4057 -7.43445
LeftHand  1.46156 11.91 25.6547
RightShoulder  0.157897 -2.41929 5.56386
RightArm  -55.4041 -1.66608 -7.96509
RightForeArm  17.397 56.5157 16.2714
RightHand  -4.31032 9.79944 -32.4326
LeftUpLeg  -46.3655 26.9797 -0.417931
LeftLeg  32.5126 2.06651 1.95455
LeftFoot  -14.6841 0.380904 9.77248
LeftToes  -8.4584e-011 5.90861e-011 8.40072e-012
51
root  -9.75123 37.3557 59.3959 -97.2749 66.6373 -114.769
RightUpLeg  -18.3845 -11.3506 -12.9326
RightLeg  3.42103 -34.7093 -6.8067
RightFoot  -13.813 0.395959 22.1551
RightToes  -5.82094e-011 -1.98785e-016 -5.10186e-018
Spine  39.2121 2.68929 -8.50851
Spine1  2.65248 -5.61542 16.5477
HEad  -35.2854 -41.4546 49.1471
LeftShoulder1  2.99548 -14.4625 -9.24481
LeftArm  -17.1147 -16.0602 -40.4596
LeftForeArm  66.7278 -48.7316 -8.15344
LeftHand  1.26393 11.0736 25.4731
RightShoulder  1.11471 1.99618 13.5502
RightArm  -51.9557 -0.847654 -3.05825
RightForeArm  25.0029 70.6606 30.6084
RightHand  -4.11553 8.39641 -33.9013
LeftUpLeg  -49.0205 27.6516 -0.205943
LeftLeg  40.8052 -0.720114 -0.146364
LeftFoot  -14.7553 0.346529 8.80457
LeftToes  -8.4584e-011 5.90861e-011 8.40072e-012
52
root  -10.0124 36.564 60.8097 -93.3777 68.6512 -109.253
RightUpLeg  -23.5373 -9.41993 -10.1903
RightLeg  3.9267 -35.0763 -7.59764
RightFoot  -14.7063 0.501756 20.2398
RightToes  -5.82094e-011 -1.98785e-016 -5.10186e-018
Spine  39.5012 3.75467 -6.96927
Spine1  3.69438 -3.05314 12.9448
HEad  -31.5092 -46.8767 41.67
LeftShoulder1  3.89076 -14.0083 -15.4569
LeftArm  -14.3378 -14.5878 -46.6036
LeftForeArm  72.4513 -55.0829 -10.4515
LeftHand  0.884911 9.34639 25.718
RightShoulder  2.18584 5.38191 18.204
RightArm  -39.5433 4.65477 3.50381
RightForeArm  34.2233 72.689 35.1887
RightHand  -3.21214 7.44091 -28.7322
LeftUpLeg  -49.4461 26.1821 2.42895
LeftLeg  45.5415 3.02912 3.79557
LeftFoot  -18.8105 0.519715 6.29258
LeftToes  -8.4584e-011 5.90861e-011 8.40072e-012
